<?xml version="1.0" standalone="no"?>
<!DOCTYPE svg PUBLIC "-//W3C//DTD SVG 20010904//EN"
 "http://www.w3.org/TR/2001/REC-SVG-20010904/DTD/svg10.dtd">
<svg version="1.0" xmlns="http://www.w3.org/2000/svg"
 width="64.000000pt" height="64.000000pt" viewBox="0 0 64.000000 64.000000"
 preserveAspectRatio="xMidYMid meet">

<g transform="translate(0.000000,64.000000) scale(0.100000,-0.100000)"
fill="#000000" stroke="none">
<path d="M180 590 c0 -40 0 -40 -40 -40 -30 0 -48 -7 -72 -29 l-33 -29 0 -210
c0 -209 0 -211 24 -236 36 -38 79 -46 261 -46 182 0 225 8 261 46 24 25 24 27
24 236 l0 210 -33 29 c-24 22 -42 29 -72 29 -40 0 -40 0 -40 40 0 29 -4 40
-15 40 -11 0 -15 -11 -15 -40 l0 -40 -110 0 -110 0 0 40 c0 29 -4 40 -15 40
-11 0 -15 -11 -15 -40z m376 -95 c14 -14 22 -30 19 -35 -8 -14 -502 -14 -510
0 -3 5 5 21 19 35 l25 25 211 0 211 0 25 -25z m24 -238 c0 -184 -5 -199 -68
-217 -48 -13 -336 -13 -384 0 -63 18 -68 33 -68 217 l0 163 260 0 260 0 0
-163z"/>
</g>
</svg>
