<?xml version="1.0" standalone="no"?>
<!DOCTYPE svg PUBLIC "-//W3C//DTD SVG 20010904//EN"
 "http://www.w3.org/TR/2001/REC-SVG-20010904/DTD/svg10.dtd">
<svg version="1.0" xmlns="http://www.w3.org/2000/svg"
 width="512.000000pt" height="512.000000pt" viewBox="0 0 512.000000 512.000000"
 preserveAspectRatio="xMidYMid meet">

<g transform="translate(0.000000,512.000000) scale(0.100000,-0.100000)"
fill="#ff2b00" stroke="none">
<path d="M1188 4759 c-651 -80 -1108 -589 -1179 -1315 -44 -447 75 -832 372
-1204 206 -257 456 -484 1154 -1045 394 -317 658 -533 857 -702 86 -73 162
-133 168 -133 6 0 82 60 168 133 176 149 518 429 752 617 590 473 813 663
1016 865 424 422 599 764 620 1215 22 461 -125 889 -407 1184 -187 196 -411
316 -695 372 -124 25 -387 25 -504 1 -380 -80 -696 -288 -903 -594 -23 -34
-44 -62 -47 -62 -3 0 -32 39 -65 87 -195 283 -523 494 -880 567 -97 20 -322
27 -427 14z"/>
</g>
</svg>
