<svg xmlns="http://www.w3.org/2000/svg" version="1.0" preserveAspectRatio="xMidYMid meet" viewBox="65.5 8.24 381 495.26">

<g transform="translate(0.000000,512.000000) scale(0.100000,-0.100000)" fill="#000000" stroke="none">
<path d="M2275 5020 c-629 -113 -1140 -553 -1336 -1152 -57 -174 -81 -321 -82 -503 -1 -130 3 -164 25 -255 95 -379 351 -859 780 -1463 66 -93 118 -170 116 -172 -1 -1 -48 -10 -103 -19 -146 -25 -334 -72 -465 -118 -281 -99 -443 -215 -522 -376 -30 -60 -33 -75 -33 -157 0 -81 3 -97 32 -158 117 -246 484 -418 1091 -512 281 -43 388 -50 782 -50 462 0 685 21 1035 97 454 98 739 256 838 465 29 61 32 77 32 158 0 82 -3 97 -33 157 -59 120 -162 213 -329 296 -153 77 -419 157 -658 198 -55 10 -102 18 -103 20 -2 1 50 78 116 171 391 550 657 1034 758 1381 46 158 58 278 45 432 -21 249 -77 447 -186 659 -237 459 -668 785 -1180 892 -150 31 -469 36 -620 9z m530 -196 c470 -75 879 -375 1099 -805 137 -269 196 -601 147 -837 -82 -393 -419 -984 -1014 -1777 -106 -140 -391 -501 -454 -574 l-23 -26 -22 26 c-63 72 -349 434 -455 574 -603 803 -945 1407 -1019 1800 -40 216 21 557 144 801 301 597 938 924 1597 818z m-852 -3576 c18 -24 97 -124 174 -223 206 -263 303 -376 343 -397 54 -29 155 -22 204 16 31 23 306 360 478 584 56 72 46 70 219 41 268 -45 466 -103 634 -184 272 -133 338 -293 183 -441 -179 -172 -590 -295 -1163 -349 -229 -22 -701 -22 -930 0 -312 29 -632 91 -825 160 -197 71 -354 175 -400 266 -110 214 215 427 825 538 223 41 216 41 258 -11z"/>
<path d="M2472 4365 c-95 -41 -117 -77 -197 -325 l-71 -215 -245 -5 -246 -5 -49 -30 c-101 -63 -142 -192 -94 -302 27 -63 37 -73 237 -217 90 -65 165 -121 167 -125 3 -4 -27 -106 -66 -226 -59 -185 -69 -227 -65 -267 15 -122 119 -218 238 -218 68 0 111 23 294 155 l186 134 185 -134 c102 -74 202 -139 222 -145 146 -40 291 57 309 208 4 40 -6 82 -65 267 -39 120 -69 222 -67 226 3 3 83 63 179 133 97 70 184 138 195 152 88 112 58 284 -63 359 l-49 30 -246 5 -245 5 -71 215 c-68 211 -87 250 -139 291 -62 49 -166 64 -234 34z m120 -192 c8 -10 53 -136 99 -280 l84 -263 281 0 c258 0 284 -2 304 -18 44 -36 25 -56 -211 -227 -122 -88 -225 -162 -230 -165 -4 -3 30 -122 76 -265 47 -143 85 -272 85 -288 0 -32 -40 -57 -62 -40 -104 79 -449 323 -458 323 -9 0 -360 -248 -458 -323 -22 -17 -62 8 -62 40 0 16 38 145 84 287 78 238 83 261 68 272 -9 7 -113 82 -230 166 -226 163 -246 184 -202 220 20 16 46 18 304 18 l281 0 84 263 c46 144 91 270 99 280 8 9 23 17 32 17 9 0 24 -8 32 -17z"/>
</g>
</svg>