<svg xmlns="http://www.w3.org/2000/svg" version="1.1" viewBox="148.75 78.75 402.5 402.5"> 
<g>  
<path d="m298.91 78.75c-43.305 12.465-81.34 38.402-108.41 73.926-27.07 35.523-41.715 78.719-41.746
 123.12 0 36.062 9.6484 71.492 27.973 102.73 18.324 31.23 44.68 57.168 76.418 75.199s67.742 27.527 
 104.39 27.527c41.715-0.035156 82.465-12.363 116.99-35.398 34.527-23.035 61.25-55.719 76.727-93.836-19.035 
 5.5195-38.777 8.3438-58.625 8.3789-55.371 0-108.48-21.645-147.63-60.176-39.156-38.527-61.152-90.785-61.152-145.28 
 0.054688-26.109 5.168-51.969 15.062-76.191z"></path>  
<path d="m428.75 142.02v96.25h17.5v-96.25z" fill-rule="evenodd"></path>  
<path d="m402.5 212.02 35 43.75 35-43.75z" fill-rule="evenodd"></path> 
</g>
</svg>