<svg xmlns="http://www.w3.org/2000/svg" version="1.0" preserveAspectRatio="xMidYMid meet" viewBox="7 12 66 58">

<g transform="translate(0.000000,80.000000) scale(0.100000,-0.100000)" fill="#000000" stroke="none">
<path d="M390 670 c0 -5 5 -10 10 -10 6 0 10 5 10 10 0 6 -4 10 -10 10 -5 0 -10 -4 -10 -10z"/>
<path d="M390 620 c0 -5 5 -10 10 -10 6 0 10 5 10 10 0 6 -4 10 -10 10 -5 0 -10 -4 -10 -10z"/>
<path d="M390 580 c0 -5 5 -10 10 -10 6 0 10 5 10 10 0 6 -4 10 -10 10 -5 0 -10 -4 -10 -10z"/>
<path d="M390 463 l0 -87 -40 39 c-22 21 -43 35 -47 31 -4 -3 16 -30 45 -59 l52 -52 52 52 c29 29 49 56 45 59 -4 4 -25 -10 -47 -31 l-40 -39 0 87 c0 51 -4 87 -10 87 -6 0 -10 -36 -10 -87z"/>
<path d="M325 281 c-50 -22 -91 -69 -106 -121 l-12 -40 -69 0 c-39 0 -68 -4 -68 -10 0 -6 117 -10 330 -10 213 0 330 4 330 10 0 6 -29 10 -68 10 l-69 0 -12 40 c-33 111 -153 168 -256 121z m105 -31 c0 -54 53 -85 100 -60 15 8 20 5 29 -22 6 -17 11 -35 11 -39 0 -5 -76 -9 -170 -9 -99 0 -170 4 -170 9 0 23 23 68 48 95 33 35 76 55 120 56 29 0 32 -3 32 -30z m84 -19 c18 -20 18 -20 -8 -27 -30 -7 -56 9 -56 36 0 36 27 32 64 -9z"/>
<path d="M294 199 c-10 -17 13 -36 27 -22 12 12 4 33 -11 33 -5 0 -12 -5 -16 -11z"/>
</g>
</svg>