<?xml version="1.0" standalone="no"?>
<!DOCTYPE svg PUBLIC "-//W3C//DTD SVG 20010904//EN"
 "http://www.w3.org/TR/2001/REC-SVG-20010904/DTD/svg10.dtd">
<svg version="1.0" xmlns="http://www.w3.org/2000/svg"
 width="512.000000pt" height="512.000000pt" viewBox="0 0 512.000000 512.000000"
 preserveAspectRatio="xMidYMid meet">

<g transform="translate(0.000000,512.000000) scale(0.100000,-0.100000)"
fill="#000000" stroke="none">
<path d="M2398 5103 c-14 -9 -31 -27 -37 -40 -15 -33 -15 -494 0 -527 28 -60
122 -71 170 -20 l24 26 0 259 0 259 -26 26 c-33 33 -94 41 -131 17z"/>
<path d="M1254 4803 c-12 -2 -34 -17 -50 -34 -50 -53 -43 -79 85 -299 62 -107
122 -205 133 -217 60 -65 178 -12 178 80 0 29 -211 401 -249 438 -27 28 -61
39 -97 32z"/>
<path d="M3593 4799 c-39 -11 -43 -18 -176 -250 -119 -207 -127 -234 -82 -287
34 -40 75 -49 122 -25 32 16 53 46 155 223 125 216 136 250 102 299 -13 19
-74 54 -86 50 -2 0 -17 -5 -35 -10z"/>
<path d="M2230 4036 c-578 -104 -1015 -525 -1137 -1096 -23 -107 -25 -417 -4
-525 47 -240 176 -506 317 -652 40 -43 56 -53 83 -53 66 0 110 42 111 106 0
35 -8 51 -59 115 -377 469 -338 1147 89 1569 410 405 1059 452 1522 109 95
-71 234 -222 296 -321 258 -417 232 -944 -68 -1339 -74 -98 -83 -125 -56 -178
23 -44 99 -66 145 -42 18 10 117 135 163 207 76 118 149 307 185 474 24 117
24 389 0 513 -110 550 -518 971 -1067 1099 -111 26 -409 34 -520 14z"/>
<path d="M385 3941 c-71 -31 -91 -120 -39 -171 41 -39 412 -250 441 -250 92 0
145 118 80 178 -34 32 -403 242 -434 247 -15 2 -37 1 -48 -4z"/>
<path d="M4460 3943 c-8 -3 -107 -58 -218 -122 -214 -121 -232 -138 -232 -202
0 -22 10 -41 34 -65 55 -55 73 -50 301 81 110 63 210 127 223 141 27 30 30 89
6 123 -9 13 -32 29 -50 37 -36 15 -41 15 -64 7z"/>
<path d="M53 2758 c-57 -28 -67 -122 -17 -169 l26 -24 258 0 258 0 26 24 c51
48 40 142 -20 170 -33 14 -500 14 -531 -1z"/>
<path d="M4299 2741 c-47 -48 -37 -130 21 -164 24 -15 62 -17 265 -17 266 0
285 4 311 67 19 43 5 93 -33 123 -24 19 -40 20 -280 20 l-255 0 -29 -29z"/>
<path d="M555 1694 c-110 -64 -206 -120 -212 -126 -7 -6 -17 -26 -22 -45 -12
-43 5 -92 40 -117 49 -34 83 -23 299 102 177 102 207 123 223 155 24 47 15 88
-25 122 -54 46 -81 38 -303 -91z"/>
<path d="M4061 1796 c-56 -31 -67 -108 -23 -155 15 -16 114 -80 221 -140 149
-86 202 -111 230 -111 88 1 133 105 74 169 -16 17 -114 80 -220 141 -200 114
-230 125 -282 96z"/>
<path d="M1334 1479 c-11 -6 -28 -23 -37 -39 -15 -25 -17 -69 -17 -387 0 -401
6 -449 64 -568 85 -172 255 -269 471 -268 260 0 441 135 512 380 13 48 17 120
21 418 4 387 1 419 -45 454 -31 25 -89 27 -122 5 -48 -34 -51 -58 -51 -437 0
-392 -4 -421 -63 -499 -19 -24 -57 -56 -87 -73 -46 -24 -70 -30 -141 -33 -124
-6 -186 14 -254 81 -87 88 -88 91 -94 540 l-6 389 -28 24 c-30 26 -84 31 -123
13z"/>
<path d="M2614 1479 c-26 -13 -54 -60 -54 -90 0 -38 438 -1124 463 -1147 52
-49 132 -32 165 35 10 21 115 278 231 570 203 509 212 534 201 568 -15 47 -53
75 -101 75 -71 0 -77 -10 -258 -464 l-168 -418 -167 418 c-118 297 -174 426
-192 442 -27 24 -82 29 -120 11z"/>
</g>
</svg>
