<svg xmlns="http://www.w3.org/2000/svg" shape-rendering="geometricPrecision" text-rendering="geometricPrecision" image-rendering="optimizeQuality" fill-rule="evenodd" clip-rule="evenodd" viewBox="0 0 511 511.657"><path d="M511 260.639l-69.4 33.514 30.572 52.636-57.872 12.423 21.954 72.784-70.338-20.148-10.624 59.994-54.601-31.229-30.563 71.044-39.714-65.65-47.073 36.781-19.13-58.354-71.316 29.141 16.228-71.316-61.296-6.704 25.989-53.614-55.575-28.774 43.477-42.158L0 207.034l76.105-25.012-21.579-56.39 59.991-2.942-11.485-72.302 68.377 31.593 23.047-57.044 45.931 38.412L280.586 0l29.265 71.032 54.6-25.012 8.17 58.03 72.294-15.904-26.363 70.992 59.341 16.179-35.473 49.858L511 260.639zm-321.049-56.992v76.475h11.577c4.132 0 6.957-.516 8.479-1.549 1.523-1.032 2.283-3.398 2.283-7.094v-67.832h32.611v57.233c0 9.239-.599 16.687-1.795 22.339-1.196 5.652-3.424 10.435-6.685 14.35-3.26 3.911-7.717 6.63-13.369 8.152-5.652 1.523-12.99 2.283-22.012 2.283-9.024 0-16.334-.76-21.932-2.283-5.597-1.522-10.028-4.241-13.289-8.152-3.26-3.915-5.488-8.698-6.684-14.35-1.196-5.652-1.795-13.1-1.795-22.339v-57.233h32.611zm129.303 0h34.406l-25.275 101.911h-47.612L255.5 203.647h34.403l13.862 64.734h1.466l14.023-64.734zm103.061 51.279c0-46.751-16.51-86.474-49.528-119.323-33.024-32.863-72.904-49.37-119.481-49.37-46.591 0-86.313 16.507-119.168 49.37-32.861 32.849-49.37 72.572-49.37 119.323 0 46.577 16.509 86.466 49.37 119.651 32.855 33.182 72.575 49.857 119.168 49.857 46.577 0 86.457-16.675 119.481-49.857 33.018-33.182 49.528-73.071 49.528-119.648v-.003z"/></svg>